<svg width="49" height="48" viewBox="0 0 49 48" fill="none" xmlns="http://www.w3.org/2000/svg">
<path d="M41.4567 7.02868C36.932 2.48932 30.899 0 24.5 0C18.0863 0 12.0534 2.48932 7.52868 7.02868C2.98932 11.5534 0.5 17.5863 0.5 24C0.5 30.4137 2.98932 36.432 7.52868 40.9713C12.0534 45.496 18.0863 48 24.5 48C30.9137 48 36.932 45.5107 41.4713 40.9713C45.996 36.4466 48.5 30.4137 48.5 24C48.4854 17.5863 45.996 11.5534 41.4567 7.02868Z" fill="#DE1212"/>
<path d="M33 32L17 16M33 16L17 32" stroke="white" stroke-width="5" stroke-linecap="round"/>
</svg>
