<svg width="20" height="20" viewBox="0 0 20 20" fill="none" xmlns="http://www.w3.org/2000/svg">
<rect width="20" height="20" rx="10" fill="#22C6B6"/>
<path d="M11.4888 5.09091L11.2118 12.5909H8.78285L8.50586 5.09091H11.4888ZM9.99734 16.1705C9.5854 16.1705 9.23207 16.0266 8.93732 15.739C8.64613 15.4478 8.50231 15.0945 8.50586 14.679C8.50231 14.2741 8.64613 13.9279 8.93732 13.6403C9.23207 13.3526 9.5854 13.2088 9.99734 13.2088C10.388 13.2088 10.7324 13.3526 11.0307 13.6403C11.3326 13.9279 11.4853 14.2741 11.4888 14.679C11.4853 14.956 11.4125 15.2081 11.2704 15.4354C11.1319 15.6591 10.9508 15.8384 10.7271 15.9734C10.5034 16.1048 10.2601 16.1705 9.99734 16.1705Z" fill="white"/>
</svg>
