<svg width="49" height="48" viewBox="0 0 49 48" fill="none" xmlns="http://www.w3.org/2000/svg">
<path d="M41.4567 7.02868C36.932 2.48932 30.899 0 24.5 0C18.0863 0 12.0534 2.48932 7.52868 7.02868C2.98932 11.5534 0.5 17.5863 0.5 24C0.5 30.4137 2.98932 36.432 7.52868 40.9713C12.0534 45.496 18.0863 48 24.5 48C30.9137 48 36.932 45.5107 41.4713 40.9713C45.996 36.4466 48.5 30.4137 48.5 24C48.4854 17.5863 45.996 11.5534 41.4567 7.02868Z" fill="#3CAF47"/>
<path d="M21.3518 28.349L16.6367 23.6339C15.7289 22.7261 14.2353 22.7261 13.3274 23.6339C12.4195 24.5418 12.4195 26.0354 13.3274 26.9433L19.6971 33.313C20.605 34.2209 22.0986 34.2209 23.0065 33.313L36.2584 20.061C37.1663 19.1532 37.1663 17.6596 36.2584 16.7517C35.3506 15.8438 33.857 15.8438 32.9491 16.7517L21.3518 28.349Z" fill="white"/>
</svg>
